<svg xmlns="http://www.w3.org/2000/svg" viewBox="0 0 1200 440" role="img">
  <rect width="1200" height="440" fill="#102a33"/>
  <style>
    .title{font:700 42px Georgia,serif;fill:#f3efe2}
    .label{font:700 28px Helvetica,Arial,sans-serif;fill:#f3efe2}
    .small{font:20px Helvetica,Arial,sans-serif;fill:#d7e3df}
    .mono{font:22px Menlo,Consolas,monospace;fill:#ffd88a}
    .box{fill:#173c45;stroke:#7ea9b1;stroke-width:3}
    .light{fill:#fffaf0;stroke:#d8d0c0;stroke-width:3}
    .gold{fill:#8d7047}
    .blue{fill:#34718a}
    .green{fill:#5b8f54}
    .line{stroke:#f3efe2;stroke-width:7;stroke-linecap:round}
    .accent{stroke:#ffd88a;stroke-width:7;stroke-linecap:round}
  </style>

  <defs><marker id="arrow" viewBox="0 0 10 10" refX="8" refY="5" markerWidth="8" markerHeight="8" orient="auto"><path d="M0 0L10 5L0 10Z" fill="#ffd88a"/></marker></defs>
  <text x="52" y="70" class="title">Tile binning limits later work</text>
  <rect x="70" y="125" width="300" height="230" rx="22" class="box"/><text x="110" y="180" class="label">Screen tiles</text>
  <path d="M110 210V320" stroke="#9cc3cb" stroke-width="2"/>
<path d="M160 210V320" stroke="#9cc3cb" stroke-width="2"/>
<path d="M210 210V320" stroke="#9cc3cb" stroke-width="2"/>
<path d="M260 210V320" stroke="#9cc3cb" stroke-width="2"/>
<path d="M310 210V320" stroke="#9cc3cb" stroke-width="2"/><path d="M110 210H310" stroke="#9cc3cb" stroke-width="2"/>
<path d="M110 246H310" stroke="#9cc3cb" stroke-width="2"/>
<path d="M110 282H310" stroke="#9cc3cb" stroke-width="2"/>
<path d="M110 318H310" stroke="#9cc3cb" stroke-width="2"/>
  <circle cx="180" cy="248" r="10" fill="#ffd88a"/><circle cx="260" cy="286" r="10" fill="#ffd88a"/><circle cx="226" cy="232" r="10" fill="#ffd88a"/>
  <rect x="475" y="155" width="270" height="170" rx="22" class="box"/><text x="515" y="215" class="label">Binning pass</text><text x="515" y="262" class="small">particle -&gt; tile</text>
  <rect x="855" y="125" width="285" height="230" rx="22" class="box"/><text x="895" y="180" class="label">Later pass</text><text x="895" y="230" class="small">read only nearby</text><text x="895" y="270" class="small">fewer tests</text><text x="895" y="310" class="small">smaller work set</text>
  <path d="M370 240H463" class="accent" marker-end="url(#arrow)"/><path d="M745 240H843" class="accent" marker-end="url(#arrow)"/>

</svg>
