<svg xmlns="http://www.w3.org/2000/svg" viewBox="0 0 900 620" role="img" aria-label="Cornell Box asset preview">
<rect width="900" height="620" fill="#fffdf7"/>
<rect x="24" y="24" width="852" height="572" rx="20" fill="#17231f"/>
<g><polygon points="508.7,439.8 463.5,335.8 609.2,266.6" fill="rgb(148,142,124)" stroke="rgba(22,32,29,0.12)" stroke-width="0.45"/>
<polygon points="609.2,266.6 463.5,335.8 232.0,244.5" fill="rgb(185,176,155)" stroke="rgba(22,32,29,0.12)" stroke-width="0.45"/>
<polygon points="508.7,439.8 609.2,266.6 654.4,371.3" fill="rgb(38,104,55)" stroke="rgba(22,32,29,0.12)" stroke-width="0.45"/>
<polygon points="1.1,91.6 391.9,241.9 898.9,126.5" fill="rgb(189,181,158)" stroke="rgba(22,32,29,0.12)" stroke-width="0.45"/>
<polygon points="463.5,335.8 508.7,439.8 277.2,348.5" fill="rgb(97,92,81)" stroke="rgba(22,32,29,0.12)" stroke-width="0.45"/>
<polygon points="391.9,241.9 388.9,644.6 898.9,528.4" fill="rgb(148,142,124)" stroke="rgba(22,32,29,0.12)" stroke-width="0.45"/>
<polygon points="391.9,241.9 898.9,528.4 898.9,126.5" fill="rgb(38,104,55)" stroke="rgba(22,32,29,0.12)" stroke-width="0.45"/>
<polygon points="654.4,371.3 609.2,266.6 377.8,175.4" fill="rgb(96,92,81)" stroke="rgba(22,32,29,0.12)" stroke-width="0.45"/>
<polygon points="1.1,493.5 388.9,644.6 391.9,241.9" fill="rgb(61,18,15)" stroke="rgba(22,32,29,0.12)" stroke-width="0.45"/>
<polygon points="463.5,335.8 277.2,348.5 232.0,244.5" fill="rgb(83,25,20)" stroke="rgba(22,32,29,0.12)" stroke-width="0.45"/>
<polygon points="609.2,266.6 232.0,244.5 377.8,175.4" fill="rgb(185,176,155)" stroke="rgba(22,32,29,0.12)" stroke-width="0.45"/>
<polygon points="508.7,439.8 654.4,371.3 423.0,280.1" fill="rgb(185,177,155)" stroke="rgba(22,32,29,0.12)" stroke-width="0.45"/>
<polygon points="1.1,493.5 391.9,241.9 1.1,91.6" fill="rgb(61,18,15)" stroke="rgba(22,32,29,0.12)" stroke-width="0.45"/>
<polygon points="779.0,509.0 631.4,507.4 677.5,383.3" fill="rgb(38,104,55)" stroke="rgba(22,32,29,0.12)" stroke-width="0.45"/>
<polygon points="677.5,383.3 631.4,507.4 515.7,461.8" fill="rgb(27,75,40)" stroke="rgba(22,32,29,0.12)" stroke-width="0.45"/>
<polygon points="823.2,383.9 677.5,383.3 561.8,337.7" fill="rgb(47,127,68)" stroke="rgba(22,32,29,0.12)" stroke-width="0.45"/>
<polygon points="779.0,509.0 677.5,383.3 823.2,383.9" fill="rgb(38,104,55)" stroke="rgba(22,32,29,0.12)" stroke-width="0.45"/>
<polygon points="508.7,439.8 423.0,280.1 277.2,348.5" fill="rgb(185,177,155)" stroke="rgba(22,32,29,0.12)" stroke-width="0.45"/>
<polygon points="677.5,383.3 515.7,461.8 561.8,337.7" fill="rgb(27,75,40)" stroke="rgba(22,32,29,0.12)" stroke-width="0.45"/>
<polygon points="654.4,371.3 377.8,175.4 423.0,280.1" fill="rgb(96,92,81)" stroke="rgba(22,32,29,0.12)" stroke-width="0.45"/>
<polygon points="232.0,244.5 423.0,280.1 377.8,175.4" fill="rgb(148,142,124)" stroke="rgba(22,32,29,0.12)" stroke-width="0.45"/>
<polygon points="232.0,244.5 277.2,348.5 423.0,280.1" fill="rgb(128,38,31)" stroke="rgba(22,32,29,0.12)" stroke-width="0.45"/>
<polygon points="823.2,383.9 561.8,337.7 707.5,338.3" fill="rgb(47,127,68)" stroke="rgba(22,32,29,0.12)" stroke-width="0.45"/>
<polygon points="631.4,507.4 779.0,509.0 663.3,463.4" fill="rgb(47,127,68)" stroke="rgba(22,32,29,0.12)" stroke-width="0.45"/>
<polygon points="631.4,507.4 663.3,463.4 515.7,461.8" fill="rgb(47,127,68)" stroke="rgba(22,32,29,0.12)" stroke-width="0.45"/>
<polygon points="779.0,509.0 823.2,383.9 707.5,338.3" fill="rgb(27,73,39)" stroke="rgba(22,32,29,0.12)" stroke-width="0.45"/>
<polygon points="1.1,91.6 898.9,126.5 514.0,-25.2" fill="rgb(189,181,158)" stroke="rgba(22,32,29,0.12)" stroke-width="0.45"/>
<polygon points="515.7,461.8 707.5,338.3 561.8,337.7" fill="rgb(38,104,55)" stroke="rgba(22,32,29,0.12)" stroke-width="0.45"/>
<polygon points="779.0,509.0 707.5,338.3 663.3,463.4" fill="rgb(27,73,39)" stroke="rgba(22,32,29,0.12)" stroke-width="0.45"/>
<polygon points="515.7,461.8 663.3,463.4 707.5,338.3" fill="rgb(38,104,55)" stroke="rgba(22,32,29,0.12)" stroke-width="0.45"/>
<polygon points="514.0,-25.2 898.9,126.5 898.9,528.4" fill="rgb(18,48,26)" stroke="rgba(22,32,29,0.12)" stroke-width="0.45"/>
<polygon points="1.1,493.5 1.1,91.6 197.6,210.1" fill="rgb(128,38,31)" stroke="rgba(22,32,29,0.12)" stroke-width="0.45"/>
<polygon points="1.1,91.6 317.5,182.8 197.6,210.1" fill="rgb(128,38,31)" stroke="rgba(22,32,29,0.12)" stroke-width="0.45"/>
<polygon points="1.1,91.6 514.0,-25.2 317.5,182.8" fill="rgb(128,38,31)" stroke="rgba(22,32,29,0.12)" stroke-width="0.45"/>
<polygon points="1.1,493.5 197.6,210.1 197.6,285.6" fill="rgb(128,38,31)" stroke="rgba(22,32,29,0.12)" stroke-width="0.45"/>
<polygon points="317.5,182.8 197.6,285.6 197.6,210.1" fill="rgb(128,38,31)" stroke="rgba(22,32,29,0.12)" stroke-width="0.45"/>
<polygon points="317.5,182.8 317.5,258.3 197.6,285.6" fill="rgb(128,38,31)" stroke="rgba(22,32,29,0.12)" stroke-width="0.45"/>
<polygon points="514.0,-25.2 317.5,258.3 317.5,182.8" fill="rgb(148,142,124)" stroke="rgba(22,32,29,0.12)" stroke-width="0.45"/>
<polygon points="514.0,-25.2 898.9,528.4 514.0,376.7" fill="rgb(18,48,26)" stroke="rgba(22,32,29,0.12)" stroke-width="0.45"/>
<polygon points="514.0,376.7 1.1,493.5 197.6,285.6" fill="rgb(128,38,31)" stroke="rgba(22,32,29,0.12)" stroke-width="0.45"/>
<polygon points="514.0,376.7 197.6,285.6 317.5,258.3" fill="rgb(148,142,124)" stroke="rgba(22,32,29,0.12)" stroke-width="0.45"/>
<polygon points="514.0,-25.2 514.0,376.7 317.5,258.3" fill="rgb(148,142,124)" stroke="rgba(22,32,29,0.12)" stroke-width="0.45"/></g>
<text x="44" y="56" fill="#f6ead4" font-family="ui-monospace, Menlo, monospace" font-size="22">Cornell Box asset preview</text>
<text x="44" y="590" fill="#a9b8ac" font-family="ui-monospace, Menlo, monospace" font-size="15">126 vertices, 42 triangles</text>
</svg>
